<svg width="298" height="204" viewBox="0 0 298 204" fill="none" xmlns="http://www.w3.org/2000/svg">
<path fill-rule="evenodd" clip-rule="evenodd" d="M196.544 2.05455C196.207 3.39863 195.318 4.28788 193.974 4.62508L191.919 5.14107L193.704 6.09541C194.685 6.62081 195.941 7.89432 196.496 8.92473L197.503 10.7989L198.301 8.70986C198.74 7.56026 199.887 6.37066 200.849 6.06483L202.598 5.50963L200.784 4.5396C199.786 4.00558 198.54 2.76579 198.015 1.78479L197.06 0L196.544 2.05455ZM40.5523 19.8146C40.3272 20.6764 39.4662 21.6464 38.6396 21.9711C37.2524 22.5161 37.3316 22.7529 39.6654 25.0552C42.0149 27.3741 42.2219 27.4384 42.6038 25.9774C42.8304 25.1133 43.7472 24.2138 44.642 23.9802C46.6888 23.4453 46.7342 22.4228 44.74 21.7899C43.8993 21.5233 42.9936 20.6176 42.7269 19.777C42.1003 17.804 41.073 17.822 40.5523 19.8146ZM259.62 29.6976C259.537 31.2542 264.284 37.1049 266.42 38.0773C268.101 38.8427 260.076 39.1077 225.42 39.4316L182.329 39.8339L225.446 40.0197L268.564 40.2056L265.833 42.0641C264.331 43.0866 262.296 45.469 261.309 47.3573C260.323 49.2463 259.97 50.127 260.525 49.3146C264.494 43.5046 267.052 41.6445 272.513 40.5984L275.65 39.997L271.363 38.9987C267.162 38.0208 263.489 35.0723 260.6 30.3586C260.087 29.5211 259.645 29.2232 259.62 29.6976ZM143.612 34.078C140.618 35.6801 139.426 37.2249 134.201 46.2782L128.218 56.6435L117.621 56.6584L107.024 56.6733L106.057 52.6026C102.516 37.6954 84.6845 31.938 73.2445 42.0076C69.3987 45.3929 67.0869 49.2761 66.2438 53.7695L65.6988 56.6733H35.142H4.5845L2.29225 58.9654L0 61.2576V102.156V143.054L2.29225 145.346L4.5845 147.638H39.9343C59.3765 147.638 75.2842 147.758 75.2842 147.904C75.2842 148.051 74.2318 150.081 72.9457 152.413C69.045 159.491 70.1774 165.363 76.3217 169.915C78.5301 171.551 78.7324 171.555 149 171.555C219.268 171.555 219.47 171.551 221.678 169.915C227.823 165.363 228.955 159.491 225.054 152.413C223.768 150.081 222.716 148.051 222.716 147.904C222.716 147.758 238.623 147.638 258.066 147.638H293.415L295.708 145.346L298 143.054V102.156V61.2576L295.708 58.9654L293.415 56.6733L231.599 56.6615L169.782 56.6505L163.9 46.4131C157.621 35.484 155.435 33.3213 149.958 32.6186C147.861 32.3497 146.074 32.7606 143.612 34.078ZM155.365 35.5656C157.297 36.941 167.199 53.7201 214.33 135.483C222.795 150.167 226.173 156.749 226.403 159.008C226.861 163.504 224.71 167.222 220.393 169.399L216.894 171.163H149H81.1062L77.607 169.399C73.2876 167.221 71.1404 163.506 71.5953 158.998C71.8376 156.6 79.9801 141.856 105.808 97.0482C126.481 61.1831 140.646 37.4194 142.119 36.1278C143.448 34.9626 145.275 33.8537 146.179 33.6624C148.885 33.0907 153.123 33.969 155.365 35.5656ZM82.6519 38.7705C82.27 39.3884 82.5138 39.5233 83.3992 39.1838C84.6242 38.7133 84.6257 38.8513 83.4282 41.207C81.7932 44.4213 82.0041 44.248 80.4514 43.6528C79.2523 43.1925 79.2939 42.9572 80.8678 41.2814C81.8292 40.2581 82.2629 39.4214 81.8316 39.4214C81.4003 39.4214 80.2553 40.2644 79.2876 41.294C78.1419 42.5134 76.9781 43.0231 75.9531 42.7549C74.5878 42.3981 74.5274 42.1942 75.5006 41.2219C76.117 40.6047 77.9976 39.6096 79.6781 39.0113C83.4721 37.6586 83.3318 37.6703 82.6519 38.7705ZM94.1562 39.5178C98.2671 41.2862 98.9148 42.1425 96.599 42.7486C95.7097 42.9808 94.0896 42.1291 92.2977 40.4871C88.9185 37.3911 89.051 37.3221 94.1562 39.5178ZM92.0734 41.2603C94.1531 42.7024 94.2221 42.8906 92.8576 43.3862C90.9386 44.0833 90.4422 43.7626 88.9373 40.8541C87.6049 38.2765 87.8088 38.3031 92.0734 41.2603ZM86.2632 41.7739C86.2632 43.6136 85.9165 44.1264 84.6743 44.1264C83.1616 44.1264 83.1443 44.0143 84.3026 41.7739C84.9716 40.48 85.6868 39.4214 85.8914 39.4214C86.0961 39.4214 86.2632 40.48 86.2632 41.7739ZM146.025 40.7937C143.267 43.1894 77.6368 157.839 77.6368 160.262C77.6368 165.101 74.3682 164.89 149 164.89C223.652 164.89 220.363 165.104 220.363 160.251C220.363 158.26 202.856 126.616 200.586 124.505C199.433 123.431 199.221 123.043 210.046 141.858C215.289 150.971 219.579 159.121 219.579 159.968C219.579 160.816 218.934 162.094 218.145 162.808C216.833 163.994 210.895 164.106 148.864 164.106C84.1309 164.106 80.9572 164.04 79.7189 162.671C79.0053 161.882 78.4211 160.607 78.4211 159.838C78.4211 158.279 143.627 44.7601 146.125 41.97C146.994 40.9991 148.288 40.2056 149 40.2056C149.712 40.2056 151.005 40.9991 151.873 41.97C152.74 42.9408 163.604 61.3783 176.014 82.9432C195.993 117.661 203.067 129.49 198.822 121.086C194.647 112.817 153.29 41.9386 151.973 40.7937C151.105 40.0385 149.767 39.4214 149 39.4214C148.233 39.4214 146.894 40.0385 146.025 40.7937ZM89.4 43.492C89.4 43.841 88.8707 44.1264 88.2237 44.1264C87.4575 44.1264 87.056 43.3752 87.0725 41.97C87.096 39.9044 87.1462 39.8778 88.2488 41.3356C88.8816 42.1731 89.4 43.1431 89.4 43.492ZM76.2253 43.8771C76.5272 44.0386 76.0802 45.3458 75.2332 46.7817C73.9934 48.8833 73.3111 49.3208 71.7435 49.0213C69.3775 48.5688 69.3117 47.7909 71.3914 44.8714C72.8759 42.7863 73.8193 42.5926 76.2253 43.8771ZM102.996 48.0599C101.336 49.6267 99.1626 49.2118 97.8303 47.0742C97.0751 45.8634 96.4579 44.5546 96.4579 44.1649C96.4579 43.7759 97.0751 43.3054 97.8303 43.1196C99.4222 42.7267 104.004 47.1087 102.996 48.0599ZM80.587 44.7789C81.3501 45.2635 81.3775 45.9779 80.7062 47.903C79.842 50.3834 78.9033 50.8367 76.5248 49.9239C74.9564 49.3224 74.9619 48.4833 76.5507 46.0594C77.8698 44.0465 78.912 43.7155 80.587 44.7789ZM96.4438 46.6444C98.1165 49.3946 97.5668 50.3654 94.3241 50.3881C93.016 50.3967 92.4129 49.7647 91.9048 47.8513C90.7535 43.5132 94.0127 42.6467 96.4438 46.6444ZM86.2632 47.6552C86.2632 50.2548 86.122 50.3999 83.5921 50.3999H80.9203L81.7626 47.6552C82.4111 45.5442 83.0275 44.9106 84.4344 44.9106C86.002 44.9106 86.2632 45.3027 86.2632 47.6552ZM90.8916 47.38C91.3652 48.7382 91.7526 49.9733 91.7526 50.1246C91.7526 50.276 90.6939 50.3999 89.4 50.3999C87.234 50.3999 87.0474 50.1819 87.0474 47.6552C87.0474 43.9571 89.6337 43.772 90.8916 47.38ZM73.0649 53.5515C72.7739 56.6019 72.6979 56.6733 69.732 56.6733C66.7316 56.6733 66.7026 56.6443 67.1802 54.1247C68.0358 49.6086 68.7455 48.8205 71.1914 49.6729C73.1535 50.3575 73.3339 50.73 73.0649 53.5515ZM105.043 51.7722C106.289 56.2585 106.134 56.6733 103.215 56.6733C101.126 56.6733 100.461 56.2977 100.089 54.9089C99.2371 51.7306 99.5673 50.3599 101.359 49.64C104.054 48.5571 104.168 48.6237 105.043 51.7722ZM79.7001 51.493C79.7573 51.5385 79.6287 52.7234 79.4154 54.1247C79.0657 56.4216 78.7653 56.6733 76.3719 56.6733C74.0851 56.6733 73.7158 56.409 73.7158 54.7771C73.7158 51.2429 74.438 50.4289 77.1193 50.9386C78.4822 51.1974 79.6436 51.4467 79.7001 51.493ZM98.8105 53.9749C98.8105 56.5361 98.6709 56.6733 96.0658 56.6733C93.4622 56.6733 93.3211 56.5353 93.3211 53.9804C93.3211 51.6334 93.5971 51.2531 95.4776 51.0123C98.4874 50.6265 98.8105 50.9135 98.8105 53.9749ZM85.0225 51.66C85.7581 51.9423 86.2632 53.059 86.2632 54.4047C86.2632 56.5392 86.0726 56.6733 83.0346 56.6733C80.0695 56.6733 79.8452 56.5298 80.2796 54.9089C80.5392 53.9381 80.7572 52.7038 80.7627 52.1643C80.7745 51.1252 82.9554 50.8664 85.0225 51.66ZM92.0608 52.4246C93.2442 55.5088 92.6231 56.6733 89.7921 56.6733C87.3015 56.6733 87.0474 56.4678 87.0474 54.4517C87.0474 53.2292 87.2826 51.9941 87.5704 51.7071C88.5687 50.7088 91.5872 51.1911 92.0608 52.4246ZM66.243 60.355C68.1416 70.4764 76.2613 77.363 86.2632 77.3356C92.144 77.3191 95.7239 75.9946 99.9774 72.2604C103.132 69.4899 106.653 62.706 106.653 59.3952V57.4575H116.847C122.454 57.4575 127.042 57.7304 127.042 58.0629C127.042 58.3961 115.639 78.4224 101.702 102.565L76.3617 146.462H40.0716H3.78146L2.28284 144.61C0.850868 142.841 0.784211 140.966 0.784211 102.409C0.784211 75.3587 1.05947 61.5446 1.61939 60.4985C2.07894 59.6398 3.22624 58.6267 4.16808 58.2471C5.1107 57.8676 19.3402 57.5343 35.7906 57.5069L65.6988 57.4575L66.243 60.355ZM72.4963 58.4377C72.661 58.9772 72.9857 60.5244 73.2178 61.8763C73.6044 64.1253 73.4327 64.3755 71.2 64.8225C69.8583 65.0906 68.609 65.1589 68.4247 64.9746C67.7981 64.348 66.752 58.7231 67.1441 58.0887C67.7707 57.0756 72.1678 57.3626 72.4963 58.4377ZM79.4084 60.006C79.8397 62.8879 78.9402 63.8399 76.0684 63.5419C74.4129 63.3702 74.0703 62.8808 73.8648 60.3981C73.6264 57.5218 73.6805 57.4575 76.3241 57.4575C78.7732 57.4575 79.0633 57.6974 79.4084 60.006ZM86.1165 60.3981C86.351 62.8291 86.2373 62.9467 83.6533 62.9467C81.4042 62.9467 80.8584 62.6072 80.4427 60.9502C79.7487 58.186 80.5063 57.3289 83.3961 57.6096C85.555 57.819 85.9024 58.175 86.1165 60.3981ZM92.3902 60.006C92.1745 62.2472 91.8373 62.5844 89.596 62.8001C87.1517 63.0361 87.0474 62.9318 87.0474 60.2515C87.0474 57.572 87.1619 57.4575 89.8415 57.4575C92.5219 57.4575 92.6262 57.5618 92.3902 60.006ZM98.9172 57.8252C99.1195 58.0283 99.1399 59.4399 98.9619 60.9619C98.6968 63.2384 98.3165 63.7309 96.828 63.7309C92.8874 63.7309 92.4035 62.8973 93.7586 58.4377C94.0386 57.5139 98.1212 57.0301 98.9172 57.8252ZM105.868 58.909C105.868 59.7073 105.471 61.5007 104.985 62.895C104.27 64.944 103.782 65.3447 102.436 64.9832C101.52 64.7378 100.506 64.5315 100.183 64.526C99.4802 64.5127 99.4301 61.681 100.089 59.2219C100.72 56.8662 105.868 56.587 105.868 58.909ZM295.717 59.701C297.149 61.4701 297.216 63.3482 297.216 102.156C297.216 140.962 297.149 142.841 295.717 144.61L294.219 146.462H257.928H221.638L196.298 102.565C182.361 78.4224 170.958 58.3899 170.958 58.0495C170.958 57.7084 198.691 57.5241 232.588 57.6394L294.218 57.8496L295.717 59.701ZM81.5226 69.0241C81.583 70.6936 77.8062 70.1196 76.5052 68.2611C74.7353 65.7352 74.9964 64.6523 77.4408 64.3708C79.1002 64.1802 79.8154 64.5754 80.5423 66.0834C81.0623 67.1617 81.503 68.4854 81.5226 69.0241ZM86.2632 66.4998C86.2632 68.3466 85.8334 69.4342 84.9731 69.7643C83.3992 70.3682 81.5579 68.0925 81.5579 65.5415C81.5579 64.0524 81.9759 63.7309 83.9105 63.7309C86.0804 63.7309 86.2632 63.9458 86.2632 66.4998ZM91.2672 65.8874C90.0619 70.9328 87.0474 71.633 87.0474 66.8676C87.0474 63.901 87.1752 63.7309 89.4149 63.7309C91.5997 63.7309 91.7424 63.8971 91.2672 65.8874ZM98.0263 64.9824C98.0263 65.2388 97.4209 66.4739 96.6806 67.727C95.7082 69.373 94.7303 70.0043 93.1517 70.0043C90.6336 70.0043 90.7136 70.1862 91.8295 66.9844C92.5674 64.8672 93.0709 64.5151 95.3584 64.5151C96.8257 64.5151 98.0263 64.7252 98.0263 64.9824ZM13.6453 65.8991C13.1708 66.2159 12.3992 67.2032 11.931 68.0933C9.65285 72.4266 16.4959 76.222 19.1857 72.1169C21.6638 68.334 17.3122 63.4509 13.6453 65.8991ZM26.6632 66.8676C24.7795 68.7512 24.6485 71.0143 26.3267 72.6932C27.7854 74.151 31.4476 74.3165 32.78 72.9842C34.3398 71.4244 33.8983 67.8651 31.9778 66.5202C29.6745 64.9064 28.5508 64.9801 26.6632 66.8676ZM40.5084 66.7335C38.9902 68.4109 38.8059 71.6385 40.1516 72.9842C42.476 75.3085 47.8368 73.05 47.8368 69.7463C47.8368 67.9952 45.0576 65.2992 43.2531 65.2992C42.4572 65.2992 41.222 65.9446 40.5084 66.7335ZM75.4238 67.9866C76.7091 70.5728 76.7005 70.6458 75.0317 71.1045C73.7605 71.4535 72.7418 70.9351 71.0495 69.0766C68.9266 66.7453 68.8741 66.5398 70.2653 65.994C73.0265 64.9111 74.1024 65.3259 75.4238 67.9866ZM102.112 65.9423C103.35 66.4347 103.329 66.6708 101.839 69.0241C100.182 71.6409 99.2042 72.0463 97.3644 70.8802C96.494 70.329 96.5316 69.7832 97.5801 67.7561C98.8599 65.2812 99.652 64.9644 102.112 65.9423ZM83.4918 73.09C84.6053 75.2434 84.5834 75.423 83.1412 75.8809C81.2309 76.4871 73.9181 73.3935 74.9486 72.4156C75.7814 71.6252 78.0219 71.012 80.5572 70.8794C81.7453 70.8175 82.6817 71.5232 83.4918 73.09ZM86.2632 73.141C86.2632 74.4349 86.0961 75.4935 85.8914 75.4935C85.6868 75.4935 84.9716 74.4349 84.3026 73.141C83.1443 70.9006 83.1616 70.7885 84.6743 70.7885C85.9165 70.7885 86.2632 71.3013 86.2632 73.141ZM88.5374 72.5529C87.187 75.1477 87.0474 75.1783 87.0474 72.8799C87.0474 71.5225 87.4701 70.7885 88.2511 70.7885C89.2486 70.7885 89.298 71.0904 88.5374 72.5529ZM91.8742 73.2202C88.8809 75.9405 88.1406 75.826 89.4965 72.8501C90.1646 71.3845 91.0225 70.7948 92.467 70.8112L94.4974 70.8347L91.8742 73.2202ZM78.4454 72.1373C78.4775 72.9191 82.3405 75.7562 82.7781 75.3187C82.9593 75.1383 82.0527 74.2106 80.7643 73.2579C79.475 72.3051 78.432 71.8008 78.4454 72.1373ZM97.6154 72.327C98.0898 73.094 92.6247 76.2777 90.8335 76.2777C89.6047 76.2777 94.9373 71.6479 96.2156 71.6048C96.7292 71.5868 97.3589 71.9122 97.6154 72.327ZM268.304 78.7589C267.865 79.9085 266.719 81.0981 265.756 81.4039L264.008 81.9591L265.822 82.9291C266.819 83.4631 268.065 84.7029 268.591 85.6839L269.545 87.4687L270.061 85.4142C270.398 84.0701 271.287 83.1808 272.632 82.8436L274.686 82.3276L272.901 81.3733C271.92 80.8479 270.664 79.5744 270.11 78.544L269.103 76.6698L268.304 78.7589ZM135.221 88.2929C134.776 89.4535 146.933 125.496 148.195 126.758C148.746 127.309 149.254 127.309 149.805 126.758C151.067 125.496 163.224 89.4535 162.779 88.2929C162.47 87.4891 159.372 87.2562 149 87.2562C138.628 87.2562 135.53 87.4891 135.221 88.2929ZM60.0368 103.583C59.7372 104.527 58.5695 105.782 57.4411 106.373C55.4147 107.435 55.4107 107.454 57.1062 107.992C58.0504 108.292 59.3059 109.459 59.8964 110.588C60.9582 112.614 60.9779 112.618 61.5158 110.923C61.8154 109.979 62.9831 108.723 64.1116 108.133C66.138 107.071 66.1419 107.051 64.4464 106.513C63.5022 106.214 62.2467 105.046 61.6562 103.918C60.5944 101.891 60.5748 101.887 60.0368 103.583ZM233.438 113.247C233.212 114.111 232.295 115.011 231.4 115.244C229.338 115.783 229.31 116.751 231.34 117.282C232.202 117.507 233.208 118.506 233.576 119.501L234.245 121.31L235.197 119.531C235.721 118.551 236.77 117.506 237.527 117.207C238.737 116.729 238.597 116.359 236.377 114.169C234.027 111.85 233.82 111.786 233.438 113.247ZM143.45 135.031C137.081 141.4 144.757 151.468 152.807 147.305C159.885 143.645 157.034 132.738 149 132.738C146.445 132.738 145.248 133.233 143.45 135.031ZM238.792 160.883C229.567 165.14 226.867 177.379 233.528 184.745C238.097 189.797 248.176 190.715 253.605 186.574C260.634 181.213 261.666 170.876 255.798 164.595C251.228 159.702 244.522 158.238 238.792 160.883ZM250.207 161.388C250.591 161.625 249.327 163.332 247.397 165.181C244.687 167.778 243.889 169.107 243.889 171.029C243.889 173.891 242.973 174.167 240.772 171.967C238.908 170.103 238.197 167.581 238.538 164.049C238.732 162.035 239.249 161.287 240.753 160.842C242.752 160.25 248.944 160.607 250.207 161.388ZM240.796 172.998C242.779 174.771 243.086 175.399 242.232 175.94C239.403 177.731 230.558 175.511 230.558 173.009C230.558 170.904 232.829 166.469 235.013 164.309L237.201 162.145L237.737 166.445C238.173 169.936 238.747 171.169 240.796 172.998ZM256.365 166.734C257.266 168.191 258.22 170.472 258.486 171.803L258.97 174.223L255.969 172.693C252.357 170.852 250.068 170.766 246.987 172.36C244.784 173.499 244.674 173.478 244.674 171.929C244.674 169.316 246.768 165.992 249.507 164.258C252.528 162.345 253.976 162.868 256.365 166.734ZM42.4203 170.243C41.8925 171.229 40.6895 172.35 39.7477 172.735L38.0342 173.436L39.8591 173.975C40.8621 174.272 42.0517 175.436 42.5011 176.564C43.0814 178.018 43.428 178.272 43.6954 177.437C43.9025 176.79 44.9651 175.504 46.0567 174.581C47.9529 172.976 47.9717 172.88 46.4825 172.408C45.6254 172.136 44.5769 171.134 44.1518 170.182L43.3794 168.451L42.4203 170.243ZM255.684 173.531C258.979 175.213 259.285 176.023 257.955 179.542C257.085 181.845 253.473 186.063 252.369 186.063C252.019 186.063 251.732 184.844 251.732 183.355C251.732 179.807 250.39 176.982 247.946 175.38C246.054 174.14 246.032 174.04 247.433 173.016C249.477 171.522 252.06 171.683 255.684 173.531ZM238.34 177.577C239.968 177.6 242.06 177.212 242.987 176.716C244.463 175.926 244.674 176.018 244.674 177.448C244.674 180.207 242.58 183.323 239.676 184.887C236.952 186.354 236.884 186.354 235.192 184.847C233.45 183.297 230.607 177.876 230.575 176.044C230.562 175.288 231.146 175.348 232.969 176.29C234.294 176.975 236.711 177.555 238.34 177.577ZM249.731 178.401C251.383 180.762 251.368 187.302 249.707 187.939C248.12 188.548 242.459 188.536 240.156 187.919C238.475 187.468 238.565 187.274 241.92 184.15C244.889 181.387 245.458 180.387 245.458 177.942C245.458 175.297 245.599 175.104 246.986 175.847C247.827 176.296 249.062 177.446 249.731 178.401ZM161.245 195.783C160.951 196.96 159.976 197.865 158.614 198.227L156.45 198.803L158.558 199.539C159.734 199.95 161.01 201.207 161.445 202.384C162.223 204.482 162.228 204.484 162.769 202.7C163.068 201.715 164.239 200.42 165.37 199.822L167.429 198.735L165.272 197.908C164.087 197.452 163.116 196.563 163.116 195.931C163.116 193.94 161.736 193.831 161.245 195.783Z" fill="#17BEBB"/>
</svg>
