<svg width="160" height="168" viewBox="0 0 160 168" fill="none" xmlns="http://www.w3.org/2000/svg">
<path d="M10.9432 70.0972C20.8632 72.2572 30.9431 73.1872 41.0431 74.6372C49.3631 75.8472 57.7031 77.4172 66.0431 78.2172C72.8831 78.8772 79.8232 78.8472 86.6932 78.8572C92.2443 78.9793 97.7978 78.7656 103.323 78.2172C107.423 77.7172 111.543 77.3072 115.613 76.7372C131.233 74.5472 160.673 71.8173 158.023 48.9173C156.223 33.4773 143.453 20.4272 127.433 20.8172C119.433 21.0172 112.343 24.6972 108.283 31.6872C107.853 32.4472 104.443 39.2572 105.673 39.9572C107.673 41.0772 110.963 38.4071 112.003 37.0571C115.503 32.4771 114.663 26.0572 112.863 20.9972C107.213 5.06721 85.8631 -0.242799 70.9931 1.2372C63.5844 1.88108 56.5534 4.78989 50.8552 9.5685C45.157 14.3471 41.0678 20.7638 39.1432 27.9472C38.3732 30.6772 36.0632 39.0173 38.0732 41.7873C39.0732 43.1073 41.3832 40.0772 41.6432 39.5972C42.251 38.2928 42.566 36.8712 42.566 35.4321C42.566 33.9931 42.251 32.5716 41.6432 31.2672C39.0932 25.1972 32.8132 23.3672 26.6432 24.5072C11.2032 27.3572 0.573166 47.3572 1.01317 62.1572C1.79317 86.7872 39.0131 90.1572 56.7931 91.8972C62.0831 92.4072 67.3732 93.0471 72.6832 93.4271C79.2301 93.8671 85.7951 93.9774 92.3532 93.7572C101.183 93.5072 110.353 93.1072 119.023 91.2472C121.023 90.8172 126.493 90.1471 127.263 87.5571C128.913 81.9871 114.543 81.2072 112.083 81.2172C96.4632 81.3872 77.5532 81.7771 62.8532 88.0571C55.1732 91.3271 59.1231 99.6472 62.3731 105.337C62.7131 105.917 65.7932 109.997 65.5932 110.417C62.1432 117.557 52.3631 124.927 50.9231 133.177C50.5731 135.177 55.0532 139.007 56.3232 140.097C62.4432 145.277 68.5032 150.567 74.7532 155.577C77.8132 158.027 80.8932 160.457 84.0732 162.757C85.0732 163.477 86.0732 164.187 87.0732 164.857C87.6132 165.197 88.5932 166.487 88.6932 165.857C88.9532 164.207 86.8532 161.177 86.0932 159.857C83.0585 154.383 79.626 149.139 75.8232 144.167C75.2932 143.487 70.5132 138.237 70.8232 137.377C76.2232 121.297 104.933 120.307 98.5332 99.3772" stroke="#17BEBB" stroke-width="2" stroke-linejoin="round"/>
</svg>
