<svg width="253" height="218" viewBox="0 0 253 218" fill="none" xmlns="http://www.w3.org/2000/svg">
<path fill-rule="evenodd" clip-rule="evenodd" d="M197.675 0.768157C189.952 2.28682 181.79 9.03287 178.409 16.6937C176.385 21.2775 175.789 28.9539 177.009 34.7063L177.699 37.955H120.537H63.3756L61.5804 40.2378C59.7955 42.5067 59.7843 42.9684 59.7843 116.531C59.7843 163.151 60.0979 191.128 60.6325 192.126C62.2432 195.135 66.2747 195.625 89.5889 195.642L112.204 195.658L118.156 198.674C121.43 200.332 124.833 201.69 125.718 201.69C127.686 201.69 129.122 203.935 131.693 211.036C134.995 220.149 138.585 220.31 143.477 211.565L146.614 205.955L155.403 206.638C170.645 207.822 206.393 207.31 217.915 205.742C244.227 202.16 257.394 195.649 251.344 189.21C250.254 188.05 248.19 186.616 246.756 186.022L244.149 184.942L246.626 183.682C250.154 181.884 253 179.099 253 177.444C253 175.983 249.448 172.242 246.664 170.77C245.271 170.033 245.485 169.679 248.544 167.655C250.442 166.398 252.254 164.557 252.569 163.563C253.332 161.161 251.213 158.054 247.868 156.669C246.402 156.061 245.205 155.319 245.209 155.02C245.212 154.72 246.767 153.59 248.663 152.507C254.506 149.171 254.067 144.72 247.564 141.357L245.156 140.112L248.858 137.29C250.894 135.738 252.692 133.775 252.855 132.928C253.199 131.143 251.033 128.461 247.481 126.272L244.994 124.74L247.689 123.346C249.171 122.579 251.028 120.969 251.815 119.769C253.726 116.852 252.359 113.817 248.25 111.858C246.574 111.059 245.202 110.135 245.202 109.804C245.202 109.474 246.402 108.707 247.868 108.099C251.213 106.714 253.332 103.607 252.569 101.205C252.254 100.211 250.442 98.3697 248.544 97.1135C245.485 95.0889 245.271 94.7346 246.664 93.9982C249.513 92.4917 253 88.77 253 87.2366C253 84.8256 247.278 80.7721 241.018 78.7484C234.316 76.5817 219.317 73.9013 209.028 73.0315L201.88 72.4277V63.9559C201.88 54.6759 202.021 54.4584 208.023 54.4272C211.465 54.4091 220.507 49.5083 223.601 45.9849C232.776 35.5371 232.929 20.12 223.964 9.50241C220.603 5.52166 215.797 2.65328 209.929 1.12508C204.495 -0.289619 203.243 -0.326007 197.675 0.768157ZM214.461 3.61143C219.889 6.13849 226.387 13.2259 228.227 18.6222C231.593 28.5008 229.276 38.4107 221.864 45.8299C215.699 51.9998 210.467 53.9404 201.552 53.3617C191.479 52.7085 184.492 48.0658 180.071 39.0847C176.38 31.5893 176.182 24.3 179.476 17.1633C182.583 10.4311 185.564 7.2621 191.656 4.21872C198.658 0.720511 207.733 0.478811 214.461 3.61143ZM193.539 14.2603C191.763 18.5113 192.338 25.3344 194.67 27.6648C197.956 30.9508 201.024 27.2066 201.001 19.9381C200.985 14.9031 199.419 11.6206 196.858 11.2532C195.313 11.0315 194.63 11.65 193.539 14.2603ZM207.561 13.0249C205.915 15.3735 205.776 23.6139 207.33 26.685C209.992 31.9462 214.382 27.9065 214.382 20.1954C214.382 15.4384 212.358 11.099 210.141 11.099C209.464 11.099 208.303 11.9654 207.561 13.0249ZM146.454 12.4869C146.406 14.2308 150.326 19.2598 153.292 21.2575L156.215 23.2275H109.617C76.7587 23.2275 62.0283 23.5238 59.6612 24.2333C52.8649 26.2692 46.8267 33.4025 45.4456 41.0278C44.6224 45.5708 45.845 44.3259 46.9072 39.5386C48.0977 34.1735 51.3183 29.757 56.0828 26.9571L60.2175 24.527L108.258 24.2819L156.299 24.0376L153.334 26.0353C150.356 28.0426 146.426 33.0525 146.432 34.8345C146.433 35.3595 147.161 34.6197 148.049 33.1902C151.177 28.1543 157.235 24.2255 162.213 24.0072C163.488 23.9509 163.026 23.646 160.913 23.1478C154.988 21.7531 150.171 18.2202 147.437 13.2648C146.911 12.3119 146.469 11.9619 146.454 12.4869ZM185.254 33.3436C183.963 33.6849 183.94 33.9015 185.053 35.1923C185.746 35.9971 187.538 38.1404 189.033 39.9553C192.781 44.5035 197.269 46.6182 203.173 46.6182C211.03 46.6182 215.464 44.1951 220.217 37.3053C222.155 34.4975 222.439 33.6234 221.417 33.6234C220.679 33.6234 220.075 34.1943 220.075 34.8926C220.075 36.8591 214.973 42.2026 211.311 44.0704C206.846 46.3479 200.049 46.2778 195.144 43.904C191.023 41.9098 186.088 36.0075 186.86 33.9959C187.122 33.315 187.197 32.8021 187.027 32.8576C186.857 32.913 186.059 33.1313 185.254 33.3436ZM180.204 41.8283C184.134 48.1871 193.65 54.4151 199.435 54.4151C200.822 54.4151 201.014 55.2043 201.014 60.9125V67.4099H130.77H60.5259L60.8049 54.3432C61.0562 42.5924 61.2529 41.1535 62.7657 40.0489C64.1771 39.0189 73.6213 38.8213 121.397 38.8213H178.345L180.204 41.8283ZM25.9932 59.613C25.9932 67.9488 25.7159 70.8752 24.9274 70.8752C24.3409 70.8752 20.454 67.4844 16.2899 63.34C12.1258 59.1955 8.43391 56.0888 8.08647 56.4362C7.73903 56.7836 10.8461 60.475 14.9911 64.6386C19.1362 68.8021 22.5274 72.6884 22.5274 73.2749C22.5274 74.0633 19.6006 74.3405 11.2637 74.3405C4.33219 74.3405 0 74.674 0 75.2068C0 75.7396 4.33219 76.0732 11.2637 76.0732C19.6006 76.0732 22.5274 76.3504 22.5274 77.1387C22.5274 77.7252 19.1362 81.6115 14.9911 85.7751C10.8461 89.9386 7.73903 93.63 8.08647 93.9774C8.43391 94.3248 12.1258 91.2182 16.2899 87.0737C20.454 82.9292 24.3409 79.5384 24.9274 79.5384C25.7159 79.5384 25.9932 82.4649 25.9932 90.8006C25.9932 97.7312 26.3267 102.063 26.8596 102.063C27.3925 102.063 27.726 97.7312 27.726 90.8006C27.726 82.4649 28.0033 79.5384 28.7918 79.5384C29.3783 79.5384 33.2652 82.9292 37.4293 87.0737C41.5934 91.2182 45.2853 94.3248 45.6327 93.9774C45.9802 93.63 42.8731 89.9386 38.7281 85.7751C34.583 81.6115 31.1918 77.7252 31.1918 77.1387C31.1918 76.3504 34.1186 76.0732 42.4555 76.0732C49.387 76.0732 53.7192 75.7396 53.7192 75.2068C53.7192 74.674 49.387 74.3405 42.4555 74.3405C34.1186 74.3405 31.1918 74.0633 31.1918 73.2749C31.1918 72.6884 34.583 68.8021 38.7281 64.6386C42.8731 60.475 45.9802 56.7836 45.6327 56.4362C45.2853 56.0888 41.5934 59.1955 37.4293 63.34C33.2652 67.4844 29.3783 70.8752 28.7918 70.8752C28.0033 70.8752 27.726 67.9488 27.726 59.613C27.726 52.6825 27.3925 48.3509 26.8596 48.3509C26.3267 48.3509 25.9932 52.6825 25.9932 59.613ZM74.1299 50.2767C72.3918 52.757 72.4308 53.7905 74.3491 56.1599C77.4232 59.9552 83.1781 57.9029 83.1781 53.0117C83.1781 48.5189 76.7266 46.5688 74.1299 50.2767ZM90.6771 49.9354C88.7961 52.0137 88.8576 54.6637 90.8279 56.4466C94.0883 59.3973 99.6404 57.2038 99.6404 52.9649C99.6404 48.9122 93.4861 46.8322 90.6771 49.9354ZM106.399 50.5513C105.718 52.0457 105.66 53.5055 106.221 55.0995C106.93 57.1146 107.53 57.4472 110.459 57.4472C113.243 57.4472 114.106 57.0271 115.151 55.1645C116.301 53.1174 116.28 52.6487 114.948 50.6163C112.854 47.4196 107.843 47.3814 106.399 50.5513ZM81.2719 50.2568C81.8438 50.8285 82.3116 52.115 82.3116 53.1156C82.3116 54.1162 81.8438 55.4027 81.2719 55.9745C80.7001 56.5463 79.4134 57.0141 78.4127 57.0141C77.4119 57.0141 76.1253 56.5463 75.5534 55.9745C74.9816 55.4027 74.5137 54.1162 74.5137 53.1156C74.5137 52.115 74.9816 50.8285 75.5534 50.2568C76.1253 49.685 77.4119 49.2172 78.4127 49.2172C79.4134 49.2172 80.7001 49.685 81.2719 50.2568ZM97.9665 51.059C98.6821 52.3966 98.6951 53.4656 98.015 54.9574C96.6989 57.8458 92.1847 57.8458 90.8686 54.9574C89.4944 51.9418 91.19 49.2172 94.4418 49.2172C96.1435 49.2172 97.3054 49.8245 97.9665 51.059ZM113.33 50.2568C113.902 50.8285 114.37 52.115 114.37 53.1156C114.37 54.1162 113.902 55.4027 113.33 55.9745C112.758 56.5463 111.472 57.0141 110.471 57.0141C109.47 57.0141 108.184 56.5463 107.612 55.9745C107.04 55.4027 106.572 54.1162 106.572 53.1156C106.572 52.115 107.04 50.8285 107.612 50.2568C108.184 49.685 109.47 49.2172 110.471 49.2172C111.472 49.2172 112.758 49.685 113.33 50.2568ZM201.014 129.159C201.014 182.861 200.854 190.269 199.665 191.967C198.329 193.875 198.1 193.893 175.621 193.877L152.926 193.862L164.788 187.36C172.185 183.306 176.854 180.214 177.193 179.145C177.927 176.836 177.014 174.259 175.204 173.529C173.484 172.835 136.364 159.129 128.666 156.346L123.467 154.466L122.579 149.272L121.69 144.079L117.161 143.307C114.502 142.854 111.11 142.855 108.951 143.311L105.272 144.086L104.593 150.147C104.22 153.481 104.025 157.377 104.16 158.807C104.394 161.278 104.633 161.427 109.057 161.839L113.708 162.272L119.238 177.294C122.279 185.556 124.767 192.671 124.767 193.105C124.767 193.563 111.924 193.893 94.058 193.893H63.3479L61.9997 191.967C60.8101 190.269 60.6507 182.861 60.6507 129.159V68.2763H130.832H201.014V129.159ZM215.301 74.7893C234.554 77.0408 249.026 81.414 251.303 85.6685C252.574 88.0431 251.046 90.4359 246.913 92.5445L243.484 94.2936L236.867 92.561C230.743 90.9566 218.901 89.0593 206.862 87.752L201.88 87.2106V80.3424C201.88 75.4078 202.187 73.4742 202.968 73.4742C203.567 73.4742 209.117 74.0659 215.301 74.7893ZM170.255 84.4063C157.396 92.1512 142.021 106.439 131.492 120.424C126.419 127.164 117.836 140.761 117.836 142.057C117.836 142.454 118.537 142.78 119.395 142.78C121.547 142.78 123.034 144.467 123.034 146.909C123.034 148.571 123.986 147.76 128.08 142.609C139.705 127.981 155.754 117.089 171.678 113.017L176.32 111.83L176.557 96.5504C176.687 88.1471 176.492 81.2719 176.124 81.2737C175.755 81.2746 173.114 82.6841 170.255 84.4063ZM212.711 89.5306C219.854 90.0963 235.957 92.9127 239.373 94.1931C241.057 94.8255 240.714 95.0932 236.679 96.3C231.803 97.758 218.698 99.8398 208.162 100.83L201.88 101.42V94.7944C201.88 88.3801 201.943 88.1817 203.83 88.575C204.902 88.7985 208.898 89.2282 212.711 89.5306ZM247.808 97.9478C252.297 101.004 252.861 102.476 250.503 104.987C246.746 108.985 244.291 109.409 236.319 107.439C228.357 105.472 219.633 104.039 209.245 102.991C205.433 102.608 203.545 102.241 205.05 102.178C211.029 101.926 228.647 99.2966 234.372 97.8022C242.594 95.6546 244.471 95.6754 247.808 97.9478ZM218.53 105.147C230.512 106.802 240.003 108.886 240.003 109.86C240.003 111.401 214.575 115.866 205.563 115.907L201.88 115.924V109.86V103.795H205.316C207.206 103.795 213.152 104.404 218.53 105.147ZM43.9284 107.556C43.6832 108.195 43.8305 109.267 44.2551 109.939C44.6805 110.61 45.034 129.128 45.0418 151.089C45.0557 194.227 45.2203 196.015 49.705 201.895C50.9552 203.534 53.8855 205.913 56.2154 207.181L60.4523 209.487H86.4931C102.92 209.487 112.732 209.806 113.07 210.353C113.788 211.513 116.72 211.458 117.454 210.27C117.777 209.747 117.429 208.709 116.682 207.962C115.605 206.886 115.062 206.82 114.065 207.647C113.127 208.425 105.947 208.627 85.9351 208.439L59.0634 208.187L55.3212 205.556C50.5636 202.211 48.0301 198.44 46.8527 192.952C45.5279 186.775 45.5729 111.421 46.9029 110.091C48.1289 108.865 47.2634 106.394 45.6076 106.394C44.9292 106.394 44.1728 106.917 43.9284 107.556ZM247.529 112.415C250.659 114.323 252.355 116.939 251.651 118.773C251.388 119.457 249.412 120.984 247.26 122.168L243.345 124.32L237.654 122.742C232.417 121.29 223.1 119.683 208.812 117.767C204.04 117.126 203.738 116.994 206.833 116.9C212.851 116.718 228.785 114.291 235.253 112.57C243.239 110.446 244.278 110.433 247.529 112.415ZM212.961 119.439C222.111 120.436 237.865 123.408 239.832 124.508C242.098 125.777 224.298 129.23 206.429 130.988L201.88 131.436V124.98C201.88 119.744 202.132 118.523 203.214 118.523C203.947 118.523 208.334 118.935 212.961 119.439ZM84.911 133.277C84.911 140.86 85.2064 143.792 85.994 144.035C86.5901 144.22 89.3454 145.049 92.1189 145.878C94.8915 146.708 98.6934 148.497 100.567 149.853L103.973 152.321V148.523C103.973 144.634 104.899 143.202 107.768 142.657C112.395 141.776 91.4162 122.855 85.8121 122.855C85.2385 122.855 84.911 126.64 84.911 133.277ZM246.94 127.189C253.296 130.431 253.316 134.327 246.995 137.552L243.646 139.26L235.267 137.134C230.658 135.965 222.527 134.547 217.2 133.984C207.353 132.942 202.894 131.518 209.479 131.518C214.789 131.518 230.31 129.076 236.655 127.243C243.776 125.186 243.021 125.19 246.94 127.189ZM217.476 135.04C228.574 136.304 241.531 139.309 239.876 140.236C236.97 141.861 210.227 146.245 203.214 146.245C202.132 146.245 201.88 145.021 201.88 139.764V133.283L205.563 133.693C207.587 133.918 212.949 134.525 217.476 135.04ZM249.948 144.334C252.758 146.777 252.699 147.62 249.511 150.598C246.462 153.447 242.918 154.448 239.923 153.31C235.962 151.804 223.13 149.495 213.144 148.491L203.18 147.488L215.411 145.983C222.139 145.154 231.107 143.598 235.339 142.524C243.72 140.398 245.703 140.643 249.948 144.334ZM116.103 144.556C116.103 145.056 115.455 146.712 114.664 148.238C113.661 150.168 113.099 150.615 112.812 149.71C112.585 148.996 111.858 147.338 111.196 146.029C109.996 143.652 110.001 143.646 113.048 143.646C114.728 143.646 116.103 144.055 116.103 144.556ZM218.342 150.095C229.058 151.528 240.003 153.916 240.003 154.819C240.003 156.297 213.782 160.91 205.129 160.955L201.88 160.973V154.908V148.844L205.563 148.861C207.587 148.87 213.339 149.425 218.342 150.095ZM122.168 152.794C122.168 153.536 121.772 153.899 121.288 153.6C120.803 153.301 120.631 152.693 120.905 152.25C121.648 151.048 122.168 151.272 122.168 152.794ZM119.12 153.151C119.406 153.612 119.029 155.172 118.282 156.616C117.326 158.465 116.291 159.24 114.781 159.24C113.601 159.24 112.637 159.652 112.637 160.156C112.637 160.698 111.134 160.963 108.955 160.805C105.326 160.543 105.269 160.489 105.039 157.074L104.806 153.609L107.41 156.424C110.603 159.878 112.42 160.06 112.42 156.925C112.42 153.488 117.544 150.601 119.12 153.151ZM247.808 157.724C252.297 160.78 252.861 162.252 250.503 164.763C246.688 168.822 244.233 169.229 235.84 167.188C228.677 165.446 211.028 162.818 205.085 162.607C203.56 162.554 206.822 162.018 212.333 161.419C222.04 160.363 233.369 158.342 238.704 156.716C242.88 155.443 244.765 155.652 247.808 157.724ZM225.872 166.212C231.205 167.117 236.83 168.371 238.373 169L241.177 170.144L234.93 171.652C229.124 173.053 215.624 175.067 205.996 175.969L201.88 176.353V169.851V163.348L209.028 163.958C212.96 164.294 220.54 165.308 225.872 166.212ZM246.94 172.237C250.679 174.144 252.417 176.553 251.596 178.692C251.304 179.454 249.362 181.076 247.281 182.295C243.575 184.466 243.411 184.484 239.367 183.15C234.588 181.576 216.191 178.328 211.542 178.238C209.802 178.205 207.599 177.843 206.646 177.433C205.314 176.86 205.789 176.674 208.701 176.627C214.192 176.539 229.069 174.185 236.104 172.291C243.82 170.215 242.982 170.218 246.94 172.237ZM214.019 179.566C225.065 180.857 235.253 182.739 239.137 184.204C241.239 184.997 241.2 185.049 237.837 185.953C230.134 188.024 222.777 189.197 206.862 190.888L201.88 191.419V184.859C201.88 181.251 202.175 178.299 202.535 178.299C202.896 178.299 208.063 178.869 214.019 179.566ZM248.365 187.945C258.567 194.116 245.797 200.901 216.61 204.82C204.499 206.446 170.032 206.96 155.79 205.728L147.389 205.001L149.663 200.363L151.938 195.727L175.087 195.459C194.843 195.231 198.471 194.989 199.841 193.8C200.931 192.855 204.784 192.068 211.844 191.346C223.86 190.117 234.088 188.312 238.844 186.579C242.525 185.239 244.317 185.496 248.365 187.945ZM126.881 197.894C127.195 199.141 127.262 200.35 127.031 200.581C126.432 201.18 118.407 198.408 116.448 196.926C114.964 195.802 115.365 195.678 120.558 195.653C126.052 195.626 126.338 195.728 126.881 197.894Z" fill="#17BEBB"/>
</svg>
